# xmcd CD database file
# 
# Track frame offsets:
# 	180
# 	18182
# 	43196
# 	62306
# 	87388
# 	105523
# 	125741
# 	143085
# 	167599
# 	188491
# 	202261
# 	224240
# 	239159
# 
# Disc length: 3420 seconds
# 
# Submitted via: Nero 5.5.10.56
# 
# Revision: 0
# Processed by: cddbd v1.5.1PL0 Copyright (c) Steve Scherf et al.
#
DISCID=c00d5a0d
DTITLE=Sara Evans - Restless
DYEAR=1900
DGENRE=
TTITLE0=Rocking Horse
TTITLE1=Backseat of a Greyhound Bus
TTITLE2=Restless
TTITLE3=Niagara
TTITLE4=Perfect
TTITLE5=Need to be Next to You
TTITLE6=To Be Happy
TTITLE7=Tonight
TTITLE8=Otis Redding
TTITLE9=Feel it Comin' On
TTITLE10=I Give In
TTITLE11=Big Cry
TTITLE12=Suds in the Bucket
EXTD=821876070000
EXTT0=821876070000
EXTT1=821876070000
EXTT2=821876070000
EXTT3=821876070000
EXTT4=821876070000
EXTT5=821876070000
EXTT6=821876070000
EXTT7=821876070000
EXTT8=821876070000
EXTT9=821876070000
EXTT10=821876070000
EXTT11=821876070000
EXTT12=821876070000
PLAYORDER=
